<svg xmlns="http://www.w3.org/2000/svg" xmlns:xlink="http://www.w3.org/1999/xlink" width="400" zoomAndPan="magnify" viewBox="0 0 300 37.5" height="50" preserveAspectRatio="xMidYMid meet" version="1.0"><defs><g/><clipPath id="c80e1a86f6"><path d="M 1.972656 0 L 298.023438 0 L 298.023438 37.007812 L 1.972656 37.007812 Z M 1.972656 0 " clip-rule="nonzero"/></clipPath></defs><g clip-path="url(#c80e1a86f6)"><path fill="#ffffff" d="M 1.972656 0 L 298.027344 0 L 298.027344 37.007812 L 1.972656 37.007812 Z M 1.972656 0 " fill-opacity="1" fill-rule="nonzero"/><path fill="#ffffff" d="M 1.972656 0 L 298.027344 0 L 298.027344 37.007812 L 1.972656 37.007812 Z M 1.972656 0 " fill-opacity="1" fill-rule="nonzero"/></g><g fill="#000000" fill-opacity="1"><g transform="translate(5.400645, 25.636591)"><g><path d="M 1.1875 -16.28125 L 5.90625 -16.28125 C 8.164062 -16.28125 10.097656 -15.503906 11.703125 -13.953125 C 13.304688 -12.410156 14.109375 -10.476562 14.109375 -8.15625 C 14.109375 -5.8125 13.304688 -3.863281 11.703125 -2.3125 C 10.109375 -0.769531 8.175781 0 5.90625 0 L 1.1875 0 Z M 4.890625 -3.3125 L 5.46875 -3.3125 C 6.820312 -3.3125 7.925781 -3.769531 8.78125 -4.6875 C 9.644531 -5.601562 10.085938 -6.75 10.109375 -8.125 C 10.109375 -9.507812 9.675781 -10.660156 8.8125 -11.578125 C 7.945312 -12.503906 6.832031 -12.96875 5.46875 -12.96875 L 4.890625 -12.96875 Z M 4.890625 -3.3125 "/></g></g></g><g fill="#000000" fill-opacity="1"><g transform="translate(21.934368, 25.636591)"><g><path d="M 10.5 -16.28125 L 10.5 -13.03125 L 4.890625 -13.03125 L 4.890625 -9.78125 L 10.265625 -9.78125 L 10.265625 -6.53125 L 4.890625 -6.53125 L 4.890625 -3.25 L 10.5 -3.25 L 10.5 0 L 1.1875 0 L 1.1875 -16.28125 Z M 10.5 -16.28125 "/></g></g></g><g fill="#000000" fill-opacity="1"><g transform="translate(35.350902, 25.636591)"><g><path d="M 4.890625 -10.109375 L 4.890625 0 L 1.1875 0 L 1.1875 -16.28125 L 4.890625 -16.28125 L 11.359375 -6.171875 L 11.40625 -6.171875 L 11.40625 -16.28125 L 15.109375 -16.28125 L 15.109375 0 L 11.40625 0 L 4.9375 -10.109375 Z M 4.890625 -10.109375 "/></g></g></g><g fill="#000000" fill-opacity="1"><g transform="translate(53.620776, 25.636591)"><g/></g></g><g fill="#000000" fill-opacity="1"><g transform="translate(60.980486, 25.636591)"><g><path d="M 4.890625 -16.28125 L 4.890625 -3.25 L 10.5 -3.25 L 10.5 0 L 1.1875 0 L 1.1875 -16.28125 Z M 4.890625 -16.28125 "/></g></g></g><g fill="#000000" fill-opacity="1"><g transform="translate(74.101084, 25.636591)"><g><path d="M 4.890625 -16.28125 L 4.890625 0 L 1.1875 0 L 1.1875 -16.28125 Z M 4.890625 -16.28125 "/></g></g></g><g fill="#000000" fill-opacity="1"><g transform="translate(82.151313, 25.636591)"><g><path d="M 4.890625 -16.28125 L 4.890625 -3.25 L 10.5 -3.25 L 10.5 0 L 1.1875 0 L 1.1875 -16.28125 Z M 4.890625 -16.28125 "/></g></g></g><g fill="#000000" fill-opacity="1"><g transform="translate(95.271911, 25.636591)"><g><path d="M 4.890625 -16.28125 L 4.890625 -3.25 L 10.5 -3.25 L 10.5 0 L 1.1875 0 L 1.1875 -16.28125 Z M 4.890625 -16.28125 "/></g></g></g><g fill="#000000" fill-opacity="1"><g transform="translate(108.392508, 25.636591)"><g><path d="M 10.5 -16.28125 L 10.5 -13.03125 L 4.890625 -13.03125 L 4.890625 -9.78125 L 10.265625 -9.78125 L 10.265625 -6.53125 L 4.890625 -6.53125 L 4.890625 -3.25 L 10.5 -3.25 L 10.5 0 L 1.1875 0 L 1.1875 -16.28125 Z M 10.5 -16.28125 "/></g></g></g><g fill="#000000" fill-opacity="1"><g transform="translate(121.809041, 25.636591)"><g/></g></g><g fill="#000000" fill-opacity="1"><g transform="translate(129.168752, 25.636591)"><g><path d="M 14.640625 0 L 13.875 -9.65625 L 13.78125 -9.65625 L 10.4375 -0.09375 L 8.234375 -0.09375 L 4.890625 -9.65625 L 4.796875 -9.65625 L 4.03125 0 L 0.3125 0 L 1.78125 -16.28125 L 5.71875 -16.28125 L 9.328125 -6.890625 L 12.953125 -16.28125 L 16.890625 -16.28125 L 18.359375 0 Z M 14.640625 0 "/></g></g></g><g fill="#000000" fill-opacity="1"><g transform="translate(149.806119, 25.636591)"><g><path d="M 9.453125 -16.28125 L 16.03125 0 L 12.03125 0 L 10.828125 -3.25 L 4.640625 -3.25 L 3.4375 0 L -0.546875 0 L 6.015625 -16.28125 Z M 9.578125 -6.515625 L 7.75 -11.25 L 7.71875 -11.25 L 5.90625 -6.515625 Z M 9.578125 -6.515625 "/></g></g></g><g fill="#000000" fill-opacity="1"><g transform="translate(167.247377, 25.636591)"><g><path d="M 4.890625 -16.28125 L 4.890625 -3.25 L 10.5 -3.25 L 10.5 0 L 1.1875 0 L 1.1875 -16.28125 Z M 4.890625 -16.28125 "/></g></g></g><g fill="#000000" fill-opacity="1"><g transform="translate(180.367975, 25.636591)"><g><path d="M 10.5 -16.28125 L 10.5 -13.03125 L 4.890625 -13.03125 L 4.890625 -9.78125 L 10.265625 -9.78125 L 10.265625 -6.53125 L 4.890625 -6.53125 L 4.890625 -3.25 L 10.5 -3.25 L 10.5 0 L 1.1875 0 L 1.1875 -16.28125 Z M 10.5 -16.28125 "/></g></g></g><g fill="#000000" fill-opacity="1"><g transform="translate(193.784508, 25.636591)"><g><path d="M 1.1875 -16.28125 L 7 -16.28125 C 8.570312 -16.28125 9.847656 -15.863281 10.828125 -15.03125 C 11.816406 -14.195312 12.3125 -13.003906 12.3125 -11.453125 C 12.3125 -10.253906 12.007812 -9.25 11.40625 -8.4375 C 10.8125 -7.625 10.003906 -7.054688 8.984375 -6.734375 L 14.578125 0 L 9.875 0 L 4.890625 -6.4375 L 4.890625 0 L 1.1875 0 Z M 4.890625 -9.0625 L 5.328125 -9.0625 C 5.671875 -9.0625 5.957031 -9.066406 6.1875 -9.078125 C 6.425781 -9.085938 6.695312 -9.128906 7 -9.203125 C 7.300781 -9.285156 7.546875 -9.398438 7.734375 -9.546875 C 7.921875 -9.691406 8.078125 -9.898438 8.203125 -10.171875 C 8.335938 -10.453125 8.40625 -10.789062 8.40625 -11.1875 C 8.40625 -11.582031 8.335938 -11.914062 8.203125 -12.1875 C 8.078125 -12.46875 7.921875 -12.679688 7.734375 -12.828125 C 7.546875 -12.972656 7.300781 -13.082031 7 -13.15625 C 6.695312 -13.238281 6.425781 -13.285156 6.1875 -13.296875 C 5.957031 -13.316406 5.671875 -13.328125 5.328125 -13.328125 L 4.890625 -13.328125 Z M 4.890625 -9.0625 "/></g></g></g><g fill="#000000" fill-opacity="1"><g transform="translate(209.884188, 25.636591)"><g><path d="M 10.59375 -16.28125 L 10.59375 -13.03125 L 4.890625 -13.03125 L 4.890625 -9.78125 L 10.15625 -9.78125 L 10.15625 -6.53125 L 4.890625 -6.53125 L 4.890625 0 L 1.1875 0 L 1.1875 -16.28125 Z M 10.59375 -16.28125 "/></g></g></g><g fill="#000000" fill-opacity="1"><g transform="translate(222.353624, 25.636591)"><g><path d="M 9.453125 -16.28125 L 16.03125 0 L 12.03125 0 L 10.828125 -3.25 L 4.640625 -3.25 L 3.4375 0 L -0.546875 0 L 6.015625 -16.28125 Z M 9.578125 -6.515625 L 7.75 -11.25 L 7.71875 -11.25 L 5.90625 -6.515625 Z M 9.578125 -6.515625 "/></g></g></g><g fill="#000000" fill-opacity="1"><g transform="translate(239.794894, 25.636591)"><g><path d="M 1.1875 -16.28125 L 6.234375 -16.28125 C 7.765625 -16.28125 8.984375 -15.953125 9.890625 -15.296875 C 10.796875 -14.648438 11.25 -13.597656 11.25 -12.140625 C 11.25 -10.503906 10.570312 -9.335938 9.21875 -8.640625 C 11.53125 -8.234375 12.6875 -6.863281 12.6875 -4.53125 C 12.6875 -3.164062 12.210938 -2.066406 11.265625 -1.234375 C 10.316406 -0.410156 9.015625 0 7.359375 0 L 1.1875 0 Z M 4.890625 -9.90625 L 5.1875 -9.90625 C 6.019531 -9.90625 6.640625 -10.050781 7.046875 -10.34375 C 7.453125 -10.632812 7.65625 -11.109375 7.65625 -11.765625 C 7.65625 -12.867188 6.832031 -13.421875 5.1875 -13.421875 L 4.890625 -13.421875 Z M 4.890625 -2.859375 L 6.0625 -2.859375 C 7.875 -2.859375 8.78125 -3.460938 8.78125 -4.671875 C 8.78125 -5.398438 8.550781 -5.921875 8.09375 -6.234375 C 7.644531 -6.546875 6.96875 -6.703125 6.0625 -6.703125 L 4.890625 -6.703125 Z M 4.890625 -2.859375 "/></g></g></g><g fill="#000000" fill-opacity="1"><g transform="translate(254.908097, 25.636591)"><g><path d="M 1.1875 -16.28125 L 7 -16.28125 C 8.570312 -16.28125 9.847656 -15.863281 10.828125 -15.03125 C 11.816406 -14.195312 12.3125 -13.003906 12.3125 -11.453125 C 12.3125 -10.253906 12.007812 -9.25 11.40625 -8.4375 C 10.8125 -7.625 10.003906 -7.054688 8.984375 -6.734375 L 14.578125 0 L 9.875 0 L 4.890625 -6.4375 L 4.890625 0 L 1.1875 0 Z M 4.890625 -9.0625 L 5.328125 -9.0625 C 5.671875 -9.0625 5.957031 -9.066406 6.1875 -9.078125 C 6.425781 -9.085938 6.695312 -9.128906 7 -9.203125 C 7.300781 -9.285156 7.546875 -9.398438 7.734375 -9.546875 C 7.921875 -9.691406 8.078125 -9.898438 8.203125 -10.171875 C 8.335938 -10.453125 8.40625 -10.789062 8.40625 -11.1875 C 8.40625 -11.582031 8.335938 -11.914062 8.203125 -12.1875 C 8.078125 -12.46875 7.921875 -12.679688 7.734375 -12.828125 C 7.546875 -12.972656 7.300781 -13.082031 7 -13.15625 C 6.695312 -13.238281 6.425781 -13.285156 6.1875 -13.296875 C 5.957031 -13.316406 5.671875 -13.328125 5.328125 -13.328125 L 4.890625 -13.328125 Z M 4.890625 -9.0625 "/></g></g></g><g fill="#000000" fill-opacity="1"><g transform="translate(271.007787, 25.636591)"><g><path d="M 4.890625 -16.28125 L 4.890625 0 L 1.1875 0 L 1.1875 -16.28125 Z M 4.890625 -16.28125 "/></g></g></g><g fill="#000000" fill-opacity="1"><g transform="translate(279.058005, 25.636591)"><g><path d="M 16 0 L 10.890625 0 L 4.890625 -6.90625 L 4.890625 0 L 1.1875 0 L 1.1875 -16.28125 L 4.890625 -16.28125 L 4.890625 -9.625 L 10.484375 -16.28125 L 14.984375 -16.28125 L 8.421875 -8.5625 Z M 16 0 "/></g></g></g></svg>